<svg width="464" height="358" viewBox="0 0 464 358" fill="none" xmlns="http://www.w3.org/2000/svg">
<path d="M1.1563 296.601C0.473019 297.801 0.891728 299.327 2.09152 300.011L21.6432 311.145C22.843 311.829 24.3695 311.41 25.0528 310.21C25.7361 309.01 25.3173 307.484 24.1176 306.8L6.73831 296.903L16.6359 279.524C17.3191 278.324 16.9004 276.797 15.7006 276.114C14.5009 275.431 12.9743 275.85 12.2911 277.049L1.1563 296.601ZM263.674 29.7443C262.947 32.136 262.947 32.1361 262.948 32.1364C262.949 32.1368 262.951 32.1374 262.954 32.1382C262.959 32.1398 262.968 32.1424 262.979 32.1459C263.002 32.1528 263.036 32.1633 263.082 32.1775C263.174 32.2058 263.313 32.2486 263.496 32.3055C263.862 32.4194 264.408 32.5902 265.118 32.8163C266.54 33.2685 268.625 33.9418 271.265 34.8235C276.547 36.587 284.052 39.1837 292.932 42.5121C310.703 49.1729 333.936 58.747 355.873 70.4205C377.865 82.1235 398.311 95.8109 410.722 110.62C416.912 118.005 420.992 125.54 422.371 133.127C423.739 140.651 422.489 148.417 417.686 156.429L421.975 159C427.369 150.001 428.886 141.01 427.29 132.233C425.706 123.52 421.092 115.209 414.554 107.408C401.509 91.8432 380.367 77.7907 358.222 66.0065C336.021 54.1928 312.568 44.5322 294.687 37.8302C285.741 34.4772 278.178 31.8604 272.849 30.0809C270.184 29.191 268.077 28.5103 266.634 28.0514C265.912 27.822 265.357 27.648 264.98 27.531C264.792 27.4725 264.649 27.4282 264.552 27.3984C264.503 27.3835 264.466 27.3722 264.441 27.3646C264.429 27.3607 264.419 27.3578 264.413 27.3558C264.41 27.3548 264.407 27.354 264.405 27.3535C264.403 27.3529 264.402 27.3525 263.674 29.7443ZM417.686 156.429C412.909 164.398 403.49 172.38 390.501 179.972C377.567 187.532 361.34 194.564 343.261 200.742C307.103 213.098 263.791 221.948 225.167 224.813C205.857 226.245 187.782 226.176 172.395 224.324C156.956 222.467 144.466 218.841 136.133 213.342C127.945 207.938 123.863 200.825 124.705 191.538C125.573 181.962 131.707 169.656 145.237 154.247L141.48 150.948C127.712 166.629 120.737 179.926 119.725 191.087C118.687 202.537 123.953 211.294 133.379 217.515C142.661 223.641 156.051 227.394 171.798 229.289C187.597 231.19 206.013 231.247 225.537 229.799C264.583 226.903 308.313 217.968 344.878 205.474C363.161 199.226 379.716 192.067 393.024 184.289C406.275 176.544 416.555 168.041 421.975 159L417.686 156.429ZM145.237 154.247C158.633 138.992 170.854 132.932 182.102 132.934C193.406 132.935 204.454 139.05 215.489 149.794C226.506 160.52 237.214 175.576 247.814 192.807C258.405 210.025 268.796 229.262 279.232 248.31C289.649 267.325 300.108 286.149 310.778 302.401C321.43 318.625 332.412 332.478 343.934 341.424C355.509 350.411 367.897 354.634 381.083 350.97C394.104 347.353 407.293 336.2 420.971 315.957L416.829 313.158C403.404 333.025 391.07 343.007 379.745 346.153C368.587 349.253 357.809 345.867 347.001 337.475C336.141 329.043 325.522 315.747 314.958 299.657C304.413 283.595 294.042 264.938 283.617 245.908C273.21 226.912 262.746 207.54 252.073 190.188C241.408 172.85 230.442 157.375 218.977 146.212C207.532 135.067 195.292 127.935 182.103 127.934C168.859 127.932 155.383 135.115 141.48 150.948L145.237 154.247ZM420.971 315.957C434.642 295.725 438.883 279.538 434.531 266.958C430.162 254.329 417.534 246.455 400.349 241.845C365.927 232.611 310.127 235.621 251.432 243.555C192.601 251.508 130.407 264.478 82.9433 275.453C59.2063 280.942 39.1425 285.934 25.0112 289.554C17.9454 291.364 12.3623 292.832 8.54431 293.847C6.63529 294.355 5.16752 294.749 4.17628 295.017C3.68066 295.151 3.30417 295.254 3.05123 295.322C2.92475 295.357 2.82916 295.383 2.76501 295.4C2.73294 295.409 2.70872 295.416 2.69243 295.42C2.68428 295.423 2.67803 295.424 2.67395 295.425C2.66969 295.427 2.66742 295.427 3.32871 297.838C3.99 300.249 3.99173 300.249 3.99544 300.248C3.99934 300.247 4.00505 300.245 4.01282 300.243C4.02838 300.239 4.05185 300.232 4.08319 300.224C4.14586 300.206 4.23995 300.181 4.36491 300.147C4.61484 300.079 4.98826 299.977 5.48074 299.844C6.46572 299.578 7.92698 299.185 9.82923 298.679C13.6338 297.668 19.2022 296.204 26.2522 294.398C40.3525 290.785 60.3776 285.803 84.0697 280.324C131.465 269.365 193.49 256.433 252.102 248.51C310.852 240.569 365.719 237.732 399.054 246.674C415.747 251.152 426.27 258.372 429.806 268.593C433.358 278.862 430.26 293.28 416.829 313.158L420.971 315.957Z" fill="white"/>
<path d="M265 30C207.167 12.3333 74.6 -7.50001 6.99998 54.5" stroke="white" stroke-width="5"/>
</svg>
