<svg width="1664" height="1330" viewBox="0 0 1664 1330" fill="none" xmlns="http://www.w3.org/2000/svg">
<path d="M519.447 191.2C304.467 112.552 264.044 98.715 0 0V1244H1663V372.817C1542.19 324.232 1459.45 370.004 1349.51 318.667C1216.21 256.425 1118.2 274.028 1035.05 247.746C809.752 176.527 696.147 255.844 519.447 191.2Z" fill="#2C2C60"/>
<path d="M521.848 228.099C298.526 177.67 264.044 98.715 0 0V1244H1663V539.578C1559.57 546.671 1472.8 498.603 1347.11 453.801C1215.87 414.886 1087.45 437.993 1010.57 390.068C849.6 289.727 759.494 281.762 521.848 228.099Z" fill="#191B44"/>
<path d="M473.415 394.521C248.407 352.547 264.648 275.02 0.690796 176.156V1245.42H1663.14V584.091C1478.55 596.774 1269.5 620.01 1035.88 512.582C850.039 427.121 730.986 442.569 473.415 394.521Z" fill="#2C2F61"/>
<path d="M473.724 452.365C248.716 410.391 264.958 332.864 1 234V1241.84H1663.45V647.693C1504.6 628.977 1274.23 626.509 1008.84 590.103C806.182 562.303 731.296 500.413 473.724 452.365Z" fill="#0D0E25"/>
<path d="M531.965 429.075C299.203 321.573 201.298 356.607 2.61041 408.919V1245.42L1663.14 1245.42L1663.14 758.302C1418.38 704.071 1364.33 656.461 1041.64 631.603C711.456 606.167 633.107 475.788 531.965 429.075Z" fill="#FC00FF"/>
<path d="M531.965 429.075C299.203 321.573 201.298 356.607 2.61041 408.919V1245.42L1663.14 1245.42L1663.14 785.178C1420.33 754.622 1367.26 753.527 1041.64 693.033C716.049 632.544 633.107 475.788 531.965 429.075Z" fill="#8642CB"/>
<path d="M1123.71 731.907C827.076 680.447 761.953 588.721 630.349 481.867C521.217 393.258 468.493 300.038 408.145 252.944C278.758 153.416 96.013 165.176 2.61041 104.167V1245.42L1663.14 1245.42L1663.14 865.325C1524.11 886.479 1447.27 818.811 1356.95 777.979C1267.39 743.845 1175.35 740.865 1123.71 731.907Z" fill="#1FD0EC"/>
<path d="M1159.61 844.112C858.76 788.359 741.836 745.124 630.739 674.699C558.576 628.955 509.175 523.191 408.535 445.776C279.148 346.248 96.4026 358.009 3 297V1246.29H1663.53V930.498C1388.06 868.588 1296.87 869.548 1159.61 844.112Z" fill="#FC00FF"/>
<path d="M345.755 751.104C179.332 648.93 166.744 517.381 0.690796 408.919V1245.42H1663.14L1663.14 1101.93C1430.56 1028.8 1199.07 1057.74 880.869 918.117C663.33 822.659 560.705 883.069 345.755 751.104Z" fill="#20224C"/>
<path d="M256.97 873.484C98.5198 759.336 166.744 807.734 0.690796 699.272V1329.89H1663.14V1155.68C1430.45 1056.9 1071.99 1127 728.734 1065.45C477.929 1020.48 426.548 995.649 256.97 873.484Z" fill="#0D0E25"/>
</svg>
