<svg width="254" height="255" viewBox="0 0 254 255" fill="none" xmlns="http://www.w3.org/2000/svg">
<path d="M54.361 161.083C53.2524 162.107 52.772 163.338 52.9196 164.777C53.0065 165.579 53.2739 166.373 53.7219 167.16C54.5792 168.665 55.8557 169.579 57.5514 169.901C59.2338 170.22 61.2168 169.729 63.5004 168.429C65.8008 167.119 67.1303 165.667 67.4888 164.074C67.8472 162.481 67.646 161.016 66.885 159.68C66.1384 158.369 65.1504 157.509 63.9208 157.101C62.6828 156.697 61.3952 156.747 60.0581 157.251L62.5217 161.577L59.4008 163.354L54.9648 155.565L64.9998 149.85L66.4737 152.438L64.3633 154.161C65.6801 154.408 66.6912 154.728 67.3969 155.121C68.6188 155.792 69.6585 156.88 70.5158 158.385C71.927 160.863 72.2245 163.382 71.4083 165.941C70.6222 168.573 68.7321 170.742 65.7381 172.447C62.7103 174.171 59.8085 174.72 57.0328 174.094C54.2571 173.469 52.089 171.786 50.5284 169.045C49.175 166.669 48.6936 164.417 49.0842 162.291C49.4616 160.16 50.4908 158.477 52.1719 157.239L54.361 161.083Z" fill="#1EBED8"/>
<path d="M51.7868 147.924C52.0518 148.85 52.5479 149.488 53.2753 149.836C54 150.176 54.8771 150.269 55.9065 150.116L54.1281 143.898C53.0894 144.266 52.3816 144.818 52.0048 145.553C51.616 146.282 51.5433 147.072 51.7868 147.924ZM48.4882 148.867C48.1243 147.594 48.035 146.38 48.2206 145.223C48.4061 144.067 48.9186 143.009 49.7579 142.05C50.4943 141.192 51.436 140.502 52.583 139.982C53.2554 139.678 54.254 139.347 55.5788 138.989L58.5735 149.46C60.0921 148.965 61.0304 148.175 61.3884 147.091C61.6142 146.429 61.616 145.71 61.3939 144.933C61.1584 144.11 60.7331 143.507 60.118 143.127C59.785 142.918 59.3632 142.77 58.8525 142.684L57.6843 138.599C58.6215 138.442 59.6783 138.651 60.855 139.226C62.7175 140.11 63.986 141.732 64.6604 144.09C65.2171 146.036 65.0812 147.933 64.2528 149.779C63.4244 151.626 61.5971 152.953 58.7711 153.761C56.1228 154.519 53.9008 154.43 52.1051 153.496C50.3067 152.553 49.1011 151.01 48.4882 148.867Z" fill="#1EBED8"/>
<path d="M50.153 140.621L47.2115 140.984L46.9401 138.782L42.5352 139.324L42.0317 135.238L46.4366 134.695L46.1205 132.131L49.0619 131.768L49.378 134.333L57.7241 133.304C58.3713 133.225 58.7669 133.093 58.9109 132.908C59.0452 132.725 59.0606 132.213 58.9571 131.373C58.9416 131.247 58.9255 131.117 58.9088 130.981C58.8813 130.838 58.8544 130.699 58.8281 130.565L61.9144 130.184L62.2279 132.132C62.536 134.075 62.3622 135.449 61.7065 136.256C61.2903 136.778 60.5895 137.099 59.6042 137.221L49.8815 138.419L50.153 140.621Z" fill="#1EBED8"/>
<path d="M44.6265 117.341L44.2503 121.543L40.426 121.201L40.8021 116.998L44.6265 117.341ZM46.1407 121.712L46.5169 117.51L62.3669 118.929L61.9907 123.131L46.1407 121.712Z" fill="#1EBED8"/>
<path d="M48.7922 104.364C49.198 102.77 49.949 101.576 51.0454 100.78C52.1347 99.9727 53.6462 99.8151 55.5798 100.307L65.9646 102.951L64.913 107.082L55.5327 104.694C54.7215 104.488 54.0714 104.438 53.5823 104.544C52.6892 104.739 52.1009 105.392 51.8176 106.505C51.4695 107.873 51.8106 108.959 52.8411 109.764C53.387 110.184 54.1363 110.515 55.0889 110.758L63.4364 112.883L62.4136 116.901L47.0203 112.983L48.0107 109.092L50.2602 109.664C49.6 108.944 49.1542 108.308 48.9229 107.757C48.5116 106.769 48.4681 105.638 48.7922 104.364Z" fill="#1EBED8"/>
<path d="M57.4975 91.632L54.9283 90.1546L56.0346 88.2308L52.1871 86.0184L54.2395 82.4494L58.0869 84.6618L59.3751 82.4217L61.9443 83.8991L60.6561 86.1392L67.946 90.3313C68.5113 90.6563 68.9069 90.7884 69.1328 90.7274C69.3503 90.6616 69.6701 90.2617 70.0922 89.5277C70.1553 89.418 70.2208 89.3041 70.2887 89.1859C70.3531 89.0545 70.415 88.9273 70.4745 88.8044L73.1702 90.3545L72.251 92.0995C71.33 93.8378 70.3651 94.8324 69.3564 95.0831C68.7101 95.2504 67.9566 95.0866 67.096 94.5917L58.6038 89.7082L57.4975 91.632Z" fill="#1EBED8"/>
<path d="M75.0076 83.1617C75.78 82.2217 76.0386 81.2249 75.7833 80.1711C75.5281 79.1173 74.7838 78.0837 73.5505 77.0703C72.3173 76.057 71.1628 75.5303 70.087 75.4904C69.0038 75.4442 68.0759 75.8912 67.3035 76.8311C66.5311 77.7711 66.2695 78.7718 66.5186 79.8331C66.7663 80.8807 67.5068 81.9111 68.74 82.9245C69.9733 83.9379 71.1316 84.4677 72.2148 84.5138C73.3043 84.5524 74.2352 84.1017 75.0076 83.1617ZM76.3219 73.6977C78.1267 75.1807 79.2456 76.9694 79.6788 79.0638C80.1044 81.152 79.4491 83.2526 77.7127 85.3657C75.9764 87.4787 74.0427 88.5289 71.9116 88.5162C69.7729 88.4973 67.8013 87.7463 65.9965 86.2633C64.2218 84.8051 63.1104 83.0225 62.6622 80.9158C62.214 78.8091 62.858 76.6992 64.5944 74.5861C66.3307 72.473 68.2757 71.4321 70.4294 71.4634C72.583 71.4946 74.5472 72.2394 76.3219 73.6977Z" fill="#1EBED8"/>
<path d="M75.3983 64.5787L81.3102 72.132C81.8681 72.8448 82.3723 73.3153 82.8229 73.5436C83.6197 73.9458 84.455 73.8049 85.3287 73.1211C86.4477 72.2452 86.8602 71.1931 86.5663 69.9648C86.3969 69.3063 85.9973 68.5747 85.3674 67.7699L80.0314 60.9524L83.354 58.3519L93.1622 70.8832L89.9776 73.3758L88.5918 71.6053C88.5912 71.6676 88.6045 71.8425 88.6318 72.1301C88.6592 72.4177 88.6455 72.7003 88.5909 72.9779C88.4373 73.8397 88.1851 74.5439 87.8342 75.0904C87.491 75.631 86.9975 76.1532 86.3537 76.6571C84.4989 78.1089 82.7277 78.4199 81.04 77.5902C80.1039 77.1363 79.075 76.1928 77.9532 74.7595L72.0413 67.2062L75.3983 64.5787Z" fill="#1EBED8"/>
<path d="M97.6849 57.5423C97.3534 57.0437 96.9383 56.6511 96.4398 56.3646C95.7374 55.9938 94.9449 56.0251 94.0625 56.4583C92.8044 57.076 92.2506 58.1232 92.4009 59.5999C92.4823 60.384 92.7932 61.3265 93.3337 62.4273C93.8484 63.4757 94.3847 64.2588 94.9425 64.7764C95.9714 65.7459 97.1018 65.9282 98.3337 65.3233C99.2074 64.8944 99.7119 64.3539 99.8472 63.702C99.9825 63.0501 99.905 62.3291 99.6147 61.5391L103.428 59.6668C103.899 60.8454 104.016 62.1217 103.779 63.4954C103.411 65.704 102.078 67.3724 99.7797 68.5005C97.482 69.6286 95.4569 69.7772 93.7043 68.9462C91.9518 68.1151 90.5415 66.6119 89.4734 64.4365C88.2681 61.9814 87.9293 59.7786 88.457 57.828C88.9848 55.8774 90.3015 54.3853 92.407 53.3515C94.198 52.4721 95.8588 52.1555 97.3892 52.4017C98.9283 52.6435 100.302 53.7308 101.512 55.6635L97.6849 57.5423Z" fill="#1EBED8"/>
<path d="M109.83 47.3885C110.784 47.1502 111.689 47.0995 112.546 47.2365C113.412 47.3711 114.181 47.7158 114.851 48.2706C115.42 48.7404 115.828 49.2703 116.076 49.8605C116.321 50.4412 116.616 51.4209 116.961 52.7995L119.227 61.8643L115.105 62.8944L112.758 53.5038C112.55 52.6729 112.241 52.0379 111.83 51.5988C111.283 50.9732 110.494 50.789 109.465 51.0462C108.398 51.3129 107.676 51.8747 107.298 52.7315C106.927 53.5766 106.907 54.6601 107.238 55.982L109.326 64.3387L105.304 65.344L100.103 44.5374L104.126 43.5321L105.97 50.9114C106.332 49.8681 106.851 49.0761 107.528 48.5356C108.213 47.9833 108.98 47.6009 109.83 47.3885Z" fill="#1EBED8"/>
<path d="M125.981 55.8063C126.106 54.5178 126.532 53.4444 127.261 52.586C127.989 51.7276 129.124 50.9183 130.664 50.158L131.141 49.9256C130.589 49.168 130.178 48.4095 129.91 47.6501C129.641 46.8907 129.545 46.1187 129.621 45.334C129.772 43.7743 130.412 42.6091 131.543 41.8386C132.675 41.0583 134.074 40.7489 135.74 40.9103C137.261 41.0575 138.472 41.6295 139.373 42.6262C140.284 43.6141 140.673 44.8055 140.537 46.2005C140.415 47.4599 140.016 48.4529 139.34 49.1794C138.673 49.9069 137.73 50.549 136.513 51.1058L139.187 55.1491C139.584 54.6791 139.904 54.1575 140.145 53.5844C140.396 53.0122 140.558 52.3972 140.632 51.7394L144.308 52.0955C144.124 53.388 143.687 54.6706 142.997 55.9434C142.615 56.6593 142.031 57.434 141.246 58.2674L144.688 63.3237L139.66 62.8367L138.353 60.8768C137.572 61.4758 136.855 61.9051 136.204 62.1648C135.045 62.6294 133.743 62.7918 132.3 62.652C130.13 62.4418 128.496 61.6383 127.399 60.2413C126.303 58.8443 125.83 57.366 125.981 55.8063ZM133.442 45.5574C133.404 45.9449 133.501 46.3649 133.731 46.8174C133.878 47.1152 134.207 47.6507 134.719 48.4239C135.34 48.0733 135.79 47.7698 136.069 47.5132C136.604 47.037 136.901 46.4937 136.96 45.8834C137.003 45.4378 136.896 45.0265 136.639 44.6496C136.382 44.2727 135.959 44.0556 135.368 43.9984C135 43.9628 134.646 44.0312 134.306 44.2037C133.793 44.4571 133.505 44.9083 133.442 45.5574ZM130.12 56.0751C130.052 56.7823 130.275 57.4591 130.789 58.1054C131.313 58.7526 132.026 59.1199 132.927 59.2071C133.605 59.2728 134.259 59.1797 134.89 58.9279C135.531 58.6673 136.059 58.3616 136.475 58.0106L133.021 52.7772C131.918 53.3646 131.172 53.9035 130.782 54.3938C130.402 54.885 130.181 55.4455 130.12 56.0751Z" fill="#1EBED8"/>
<path d="M153.501 67.4563L149.639 65.9091L157.641 45.9328L161.504 47.48L153.501 67.4563Z" fill="#1EBED8"/>
<path d="M167.425 60.2137C166.595 59.724 165.796 59.603 165.029 59.8506C164.269 60.1033 163.569 60.6392 162.927 61.4585L168.497 64.7453C168.998 63.7634 169.131 62.8761 168.899 62.0832C168.679 61.287 168.188 60.6638 167.425 60.2137ZM169.169 57.2588C170.309 57.9315 171.209 58.7512 171.871 59.7178C172.532 60.6845 172.888 61.8044 172.94 63.0777C172.996 64.2073 172.788 65.3556 172.314 66.5225C172.035 67.2056 171.539 68.1332 170.824 69.3052L161.444 63.7704C160.684 65.1748 160.546 66.3935 161.033 67.4266C161.325 68.0621 161.819 68.5851 162.514 68.9956C163.252 69.4309 163.975 69.575 164.683 69.4279C165.068 69.35 165.476 69.1667 165.906 68.8781L169.565 71.0371C168.993 71.7958 168.083 72.3717 166.834 72.7648C164.874 73.4051 162.837 73.1021 160.725 71.8556C158.981 70.8268 157.775 69.3575 157.105 67.4479C156.435 65.5382 156.847 63.3176 158.34 60.7861C159.74 58.4138 161.413 56.9485 163.358 56.3901C165.312 55.8366 167.249 56.1262 169.169 57.2588Z" fill="#1EBED8"/>
<path d="M173.528 64.304L175.41 62.0142L177.124 63.4231L179.942 59.994L183.123 62.6078L180.305 66.0369L182.302 67.6774L180.42 69.9672L178.424 68.3266L173.085 74.8238C172.671 75.3276 172.475 75.696 172.498 75.9289C172.527 76.1542 172.868 76.5357 173.523 77.0733C173.62 77.1536 173.722 77.237 173.827 77.3235C173.946 77.4087 174.061 77.4908 174.173 77.5698L172.199 79.9724L170.63 78.7775C169.067 77.5819 168.246 76.466 168.165 75.4297C168.107 74.7646 168.393 74.0486 169.023 73.2816L175.243 65.7129L173.528 64.304Z" fill="#1EBED8"/>
<path d="M183.01 69.9198C183.894 70.3894 184.719 70.5005 185.485 70.2532C185.927 70.0922 186.294 69.8479 186.586 69.5204L184.981 67.8842L187.722 65.1952L190.636 68.1654L188.437 70.3227C187.388 71.3519 186.309 71.906 185.2 71.9848C184.098 72.0706 183.003 71.7401 181.916 70.9933L183.01 69.9198Z" fill="#1EBED8"/>
<path d="M182.541 83.8888C181.995 84.395 181.682 84.8578 181.602 85.2772C181.457 86.0207 181.794 86.9551 182.614 88.0802C183.095 88.7412 183.574 89.1928 184.052 89.4351C184.535 89.6853 184.973 89.6671 185.366 89.3807C185.744 89.1057 185.917 88.7392 185.884 88.2813C185.852 87.8233 185.339 86.4085 184.347 84.0369C183.649 82.3178 183.354 80.9616 183.461 79.9683C183.561 78.9807 184.114 78.1203 185.121 77.387C186.309 76.5219 187.666 76.2442 189.192 76.5539C190.732 76.8657 192.117 77.8675 193.349 79.5591C194.518 81.1643 195.146 82.7053 195.234 84.1822C195.336 85.6612 194.654 87.0484 193.19 88.3437L190.74 84.9801C191.139 84.6178 191.392 84.2466 191.501 83.8665C191.688 83.1645 191.458 82.3689 190.81 81.4798C190.278 80.748 189.782 80.3079 189.325 80.1593C188.874 80.0186 188.494 80.0599 188.187 80.2833C187.802 80.5641 187.643 80.9327 187.71 81.3892C187.77 81.8514 188.31 83.2461 189.33 85.5734C189.99 87.1401 190.244 88.4899 190.094 89.6228C189.93 90.7535 189.364 91.6712 188.396 92.3758C187.121 93.3039 185.732 93.587 184.229 93.2251C182.739 92.8652 181.272 91.6939 179.828 89.7112C178.356 87.6891 177.692 85.8847 177.837 84.2982C177.996 82.7138 178.736 81.4404 180.058 80.4779L182.541 83.8888Z" fill="#1EBED8"/>
<path d="M207.738 113.14C207.923 113.816 207.974 114.518 207.891 115.247C207.808 115.977 207.512 116.699 207.001 117.414C206.584 117.992 206.007 118.463 205.269 118.827C204.778 119.062 204.035 119.316 203.04 119.588L193.359 122.21L192.233 118.098L202.005 115.422C202.587 115.262 203.04 115.037 203.364 114.747C203.98 114.194 204.157 113.44 203.895 112.482C203.591 111.374 202.922 110.735 201.886 110.565C201.339 110.483 200.722 110.535 200.037 110.723L190.899 113.226L189.792 109.185L198.93 106.682C199.841 106.432 200.477 106.157 200.839 105.857C201.488 105.315 201.677 104.552 201.407 103.566C201.094 102.421 200.512 101.753 199.662 101.562C199.181 101.462 198.522 101.526 197.687 101.755L188.45 104.285L187.335 100.215L202.655 96.0194L203.724 99.9198L201.485 100.533C202.419 100.812 203.115 101.126 203.574 101.474C204.388 102.089 204.965 103.016 205.304 104.255C205.626 105.428 205.627 106.447 205.309 107.311C204.99 108.025 204.496 108.634 203.827 109.14C204.872 109.419 205.713 109.89 206.348 110.554C206.997 111.264 207.46 112.126 207.738 113.14Z" fill="#1EBED8"/>
<path d="M200.049 129.589C199.881 129.328 199.743 129.061 199.633 128.79C199.533 128.528 199.438 128.164 199.346 127.697L199.162 126.764C198.999 125.89 198.803 125.264 198.576 124.886C198.191 124.247 197.599 123.932 196.801 123.939C196.09 123.945 195.576 124.144 195.259 124.537C194.951 124.938 194.799 125.422 194.804 125.986C194.813 126.882 195.083 127.702 195.615 128.446C196.147 129.201 197.11 129.586 198.502 129.603L200.049 129.589ZM201.968 127.046C202.072 127.814 202.199 128.362 202.348 128.692C202.606 129.283 203.003 129.577 203.538 129.572C204.191 129.566 204.636 129.333 204.875 128.874C205.124 128.424 205.245 127.761 205.237 126.885C205.228 125.902 204.979 125.208 204.488 124.804C204.125 124.515 203.637 124.325 203.023 124.233L202.987 120.218C204.379 120.293 205.526 120.672 206.428 121.355C207.84 122.442 208.557 124.324 208.581 127.001C208.597 128.743 208.266 130.293 207.587 131.652C206.908 133.011 205.61 133.7 203.693 133.717L196.393 133.783C195.887 133.787 195.274 133.803 194.554 133.829C194.009 133.863 193.64 133.949 193.447 134.087C193.253 134.225 193.095 134.431 192.971 134.704L192.357 134.71L192.317 130.184C192.637 130.055 192.937 129.964 193.219 129.913C193.501 129.862 193.822 129.82 194.182 129.788C193.554 129.219 193.017 128.562 192.573 127.817C192.049 126.926 191.782 125.916 191.771 124.787C191.758 123.347 192.156 122.151 192.965 121.199C193.784 120.258 194.948 119.78 196.457 119.766C198.413 119.749 199.836 120.49 200.725 121.991C201.21 122.814 201.561 124.027 201.78 125.631L201.968 127.046Z" fill="#1EBED8"/>
<path d="M213.273 137.664L212.512 141.68L201.123 139.521L206.038 145.728L205.078 150.791L200.133 144.192L189.474 148.056L190.41 143.121L197.804 140.645L196.36 138.618L191.44 137.685L192.202 133.669L213.273 137.664Z" fill="#1EBED8"/>
<path d="M199.272 156.973C199.633 156.08 199.635 155.272 199.276 154.549C198.914 153.836 198.281 153.222 197.375 152.709L194.948 158.703C195.993 159.053 196.891 159.054 197.64 158.707C198.395 158.372 198.939 157.794 199.272 156.973ZM202.452 158.26C201.955 159.487 201.277 160.499 200.419 161.296C199.561 162.094 198.506 162.611 197.254 162.85C196.145 163.073 194.979 163.037 193.755 162.741C193.038 162.566 192.047 162.212 190.782 161.679L194.87 151.584C193.368 151.039 192.143 151.084 191.193 151.718C190.608 152.1 190.163 152.666 189.86 153.415C189.539 154.208 189.503 154.945 189.753 155.624C189.887 155.993 190.129 156.369 190.478 156.752L188.883 160.69C188.049 160.236 187.344 159.421 186.771 158.244C185.848 156.4 185.847 154.341 186.767 152.068C187.527 150.191 188.801 148.781 190.591 147.836C192.381 146.891 194.638 146.97 197.362 148.073C199.915 149.106 201.612 150.544 202.452 152.386C203.288 154.236 203.288 156.195 202.452 158.26Z" fill="#1EBED8"/>
<path d="M182.806 170.042C182.18 169.638 181.655 169.449 181.228 169.475C180.472 169.519 179.65 170.076 178.762 171.148C178.241 171.778 177.922 172.354 177.805 172.877C177.682 173.407 177.808 173.827 178.183 174.137C178.543 174.435 178.94 174.512 179.376 174.367C179.812 174.223 181.056 173.376 183.109 171.828C184.602 170.727 185.843 170.106 186.832 169.964C187.814 169.817 188.784 170.14 189.744 170.935C190.876 171.872 191.48 173.119 191.557 174.674C191.636 176.242 191.007 177.832 189.673 179.444C188.406 180.973 187.069 181.963 185.659 182.414C184.251 182.878 182.739 182.56 181.121 181.461L183.775 178.257C184.225 178.553 184.647 178.707 185.042 178.718C185.769 178.726 186.483 178.306 187.184 177.459C187.762 176.762 188.066 176.174 188.097 175.694C188.121 175.221 187.988 174.864 187.695 174.622C187.328 174.318 186.931 174.255 186.506 174.433C186.073 174.605 184.855 175.473 182.852 177.037C181.497 178.063 180.252 178.643 179.117 178.778C177.981 178.898 176.952 178.577 176.03 177.813C174.815 176.808 174.197 175.532 174.176 173.985C174.157 172.452 174.929 170.741 176.493 168.852C178.089 166.926 179.673 165.837 181.246 165.585C182.821 165.347 184.238 165.75 185.497 166.793L182.806 170.042Z" fill="#1EBED8"/>
<path d="M168.952 180.871C168 181.628 167.538 182.549 167.567 183.632C167.595 184.716 168.106 185.883 169.1 187.132C170.093 188.382 171.112 189.138 172.155 189.403C173.205 189.675 174.206 189.433 175.158 188.675C176.11 187.918 176.576 186.994 176.555 185.905C176.532 184.828 176.024 183.665 175.031 182.416C174.037 181.167 173.016 180.406 171.966 180.134C170.909 179.868 169.904 180.114 168.952 180.871ZM165.683 189.849C164.229 188.021 163.51 186.037 163.526 183.899C163.547 181.768 164.628 179.851 166.769 178.149C168.909 176.447 171.02 175.825 173.101 176.284C175.188 176.751 176.959 177.898 178.413 179.726C179.843 181.524 180.556 183.5 180.552 185.654C180.549 187.808 179.477 189.736 177.337 191.438C175.196 193.141 173.076 193.751 170.977 193.269C168.877 192.787 167.113 191.647 165.683 189.849Z" fill="#1EBED8"/>
<path d="M151.797 205.155C151.153 205.43 150.464 205.576 149.73 205.593C148.996 205.609 148.241 205.413 147.463 205.004C146.834 204.669 146.289 204.161 145.829 203.479C145.529 203.024 145.177 202.323 144.773 201.374L140.865 192.136L144.787 190.464L148.761 199.784C148.998 200.339 149.282 200.758 149.614 201.039C150.244 201.575 151.016 201.648 151.929 201.258C152.985 200.808 153.528 200.058 153.557 199.009C153.564 198.456 153.429 197.852 153.15 197.198L149.433 188.483L153.288 186.839L157.004 195.555C157.374 196.423 157.733 197.016 158.08 197.334C158.704 197.904 159.486 197.988 160.426 197.587C161.518 197.122 162.102 196.455 162.176 195.587C162.21 195.097 162.057 194.453 161.718 193.656L157.961 184.846L161.842 183.191L168.073 197.803L164.353 199.389L163.442 197.254C163.292 198.217 163.075 198.95 162.792 199.451C162.293 200.341 161.453 201.038 160.271 201.542C159.152 202.019 158.143 202.159 157.244 201.96C156.494 201.74 155.823 201.333 155.231 200.739C155.096 201.812 154.743 202.709 154.172 203.429C153.556 204.168 152.764 204.743 151.797 205.155Z" fill="#1EBED8"/>
<path d="M137.749 204.502C138.702 204.363 139.4 203.957 139.843 203.283C140.276 202.61 140.485 201.753 140.471 200.712L134.071 201.645C134.298 202.724 134.75 203.499 135.428 203.97C136.099 204.453 136.872 204.63 137.749 204.502ZM138.243 207.897C136.934 208.088 135.718 208.015 134.596 207.677C133.475 207.338 132.495 206.689 131.657 205.73C130.905 204.885 130.347 203.86 129.984 202.654C129.773 201.947 129.578 200.913 129.399 199.552L140.177 197.982C139.889 196.41 139.231 195.375 138.204 194.876C137.579 194.564 136.866 194.466 136.067 194.582C135.219 194.706 134.566 195.047 134.106 195.606C133.855 195.908 133.652 196.306 133.498 196.801L129.294 197.414C129.264 196.464 129.612 195.444 130.339 194.355C131.464 192.627 133.24 191.586 135.667 191.232C137.67 190.941 139.532 191.328 141.251 192.396C142.97 193.463 144.042 195.451 144.466 198.36C144.863 201.085 144.479 203.276 143.314 204.931C142.139 206.587 140.449 207.576 138.243 207.897Z" fill="#1EBED8"/>
<path d="M130.563 205.154L130.536 208.118L128.317 208.098L128.276 212.536L124.159 212.498L124.2 208.06L121.616 208.036L121.643 205.072L124.227 205.096L124.305 196.687C124.311 196.035 124.232 195.626 124.068 195.459C123.904 195.301 123.398 195.219 122.552 195.211C122.425 195.21 122.294 195.209 122.157 195.207C122.011 195.216 121.87 195.224 121.734 195.233L121.762 192.123L123.734 192.068C125.7 192.018 127.04 192.371 127.754 193.127C128.217 193.608 128.443 194.345 128.434 195.338L128.344 205.134L130.563 205.154Z" fill="#1EBED8"/>
<path d="M110.321 206.93C109.353 206.757 108.506 206.433 107.781 205.958C107.045 205.48 106.485 204.852 106.1 204.071C105.773 203.41 105.617 202.759 105.633 202.119C105.646 201.489 105.778 200.474 106.027 199.075L107.668 189.877L111.85 190.623L110.151 200.152C110 200.995 110.023 201.701 110.218 202.27C110.462 203.065 111.106 203.555 112.15 203.741C113.233 203.934 114.122 203.717 114.817 203.09C115.501 202.47 115.963 201.49 116.202 200.148L117.714 191.669L121.796 192.397L118.031 213.51L113.949 212.782L115.284 205.294C114.528 206.098 113.73 206.608 112.891 206.824C112.04 207.048 111.183 207.084 110.321 206.93Z" fill="#1EBED8"/>
<path d="M97.431 204.688L101.413 206.083L100.144 209.707L96.1616 208.312L97.431 204.688ZM102.04 204.292L98.0584 202.897L103.32 187.878L107.302 189.273L102.04 204.292Z" fill="#1EBED8"/>
<path d="M86.1324 197.63C84.6855 196.847 83.7101 195.827 83.2061 194.57C82.689 193.317 82.905 191.812 83.8541 190.057L88.9516 180.632L92.7014 182.659L88.097 191.174C87.6988 191.91 87.4917 192.528 87.4756 193.028C87.4463 193.942 87.9367 194.672 88.9469 195.218C90.1883 195.89 91.3249 195.824 92.3567 195.021C92.8973 194.594 93.4015 193.948 93.8691 193.083L97.9666 185.507L101.614 187.479L94.0576 201.451L90.5261 199.541L91.6303 197.499C90.7706 197.964 90.0453 198.241 89.4545 198.331C88.3955 198.489 87.2881 198.255 86.1324 197.63Z" fill="#1EBED8"/>
<path d="M81.8119 178.689C81.0767 178.052 80.2163 177.788 79.2306 177.9C78.2386 178.018 77.2165 178.684 76.1642 179.898C75.1756 181.037 74.6657 182.115 74.6344 183.132C74.5957 184.142 74.9807 184.997 75.7895 185.699C76.8923 186.656 78.1029 186.797 79.4212 186.124C80.1201 185.764 80.8203 185.18 81.5219 184.371C82.1277 183.673 82.549 182.949 82.7857 182.201C83.2394 180.817 82.9148 179.646 81.8119 178.689ZM74.1574 189.096C73.5545 188.573 73.1085 188.025 72.8195 187.452C72.3291 186.473 72.2153 185.356 72.4782 184.102L70.9762 185.834L67.9214 183.184L77.8131 171.78C79.1587 170.229 80.4338 169.286 81.6382 168.953C83.7087 168.378 86.0158 169.194 88.5597 171.4C90.0964 172.733 91.0884 174.122 91.536 175.567C91.9835 177.012 91.739 178.378 90.8024 179.666L87.3835 176.7C87.6142 176.256 87.7004 175.867 87.6422 175.533C87.5527 174.953 87.1073 174.315 86.3059 173.62C85.1736 172.638 84.0879 172.36 83.0487 172.785C82.3778 173.054 81.5449 173.761 80.55 174.908L79.8803 175.68C80.6282 175.427 81.2865 175.322 81.8553 175.364C82.8948 175.428 83.9145 175.894 84.9144 176.761C86.4584 178.101 87.2248 179.713 87.2137 181.597C87.1889 183.482 86.3729 185.351 84.7657 187.204C83.2159 188.991 81.4701 190.105 79.5282 190.546C77.5798 190.995 75.7896 190.511 74.1574 189.096Z" fill="#1EBED8"/>
</svg>
