<svg width="407" height="343" viewBox="0 0 407 343" fill="none" xmlns="http://www.w3.org/2000/svg">
<mask id="mask0_88_149" style="mask-type:alpha" maskUnits="userSpaceOnUse" x="0" y="0" width="407" height="343">
<path d="M0 32C0 14.3269 14.3269 0 32 0H406.786V343H32C14.3269 343 0 328.673 0 311V32Z" fill="#20224C"/>
</mask>
<g mask="url(#mask0_88_149)">
<path d="M-177.325 111.658C-177.546 111.339 -177.466 110.9 -177.147 110.678L294.759 -218.193L295.559 -217.036L-176.348 111.835C-176.666 112.057 -177.104 111.978 -177.325 111.658V111.658Z" fill="#20224C"/>
<path d="M-173.326 117.445C-173.547 117.125 -173.468 116.686 -173.149 116.464L298.758 -212.407L299.558 -211.25L-172.349 117.621C-172.668 117.843 -173.105 117.764 -173.326 117.445V117.445Z" fill="#20224C"/>
<path d="M-169.327 123.231C-169.548 122.911 -169.469 122.472 -169.15 122.25L302.757 -206.621L303.557 -205.463L-168.35 123.407C-168.669 123.63 -169.106 123.551 -169.327 123.231V123.231Z" fill="#20224C"/>
<path d="M-165.329 129.017C-165.549 128.698 -165.47 128.259 -165.151 128.037L306.755 -200.834L307.555 -199.677L-164.352 129.194C-164.67 129.416 -165.108 129.337 -165.329 129.017V129.017Z" fill="#20224C"/>
<path d="M-161.33 134.803C-161.551 134.484 -161.471 134.045 -161.153 133.823L310.754 -195.048L311.554 -193.891L-160.353 134.98C-160.672 135.202 -161.109 135.123 -161.33 134.803V134.803Z" fill="#20224C"/>
<path d="M-157.331 140.59C-157.552 140.27 -157.473 139.831 -157.154 139.609L314.753 -189.262L315.553 -188.105L-156.354 140.766C-156.673 140.988 -157.11 140.909 -157.331 140.59V140.59Z" fill="#20224C"/>
<path d="M-153.333 146.376C-153.554 146.056 -153.474 145.617 -153.155 145.395L318.751 -183.476L319.551 -182.318L-152.356 146.552C-152.674 146.775 -153.112 146.696 -153.333 146.376V146.376Z" fill="#20224C"/>
<path d="M-149.334 152.162C-149.555 151.843 -149.475 151.404 -149.157 151.182L322.75 -177.689L323.55 -176.532L-148.357 152.339C-148.676 152.561 -149.113 152.482 -149.334 152.162V152.162Z" fill="#20224C"/>
<path d="M-145.335 157.949C-145.556 157.629 -145.477 157.19 -145.158 156.968L326.749 -171.903L327.549 -170.746L-144.358 158.125C-144.677 158.347 -145.114 158.268 -145.335 157.949V157.949Z" fill="#20224C"/>
<path d="M-141.337 163.735C-141.557 163.416 -141.478 162.976 -141.159 162.754L330.748 -166.117L331.547 -164.959L-140.36 163.912C-140.678 164.134 -141.116 164.055 -141.337 163.735V163.735Z" fill="#20224C"/>
<path d="M-137.338 169.521C-137.559 169.202 -137.48 168.763 -137.161 168.54L334.746 -160.33L335.546 -159.173L-136.361 169.698C-136.68 169.92 -137.117 169.841 -137.338 169.521V169.521Z" fill="#20224C"/>
<path d="M-133.339 175.308C-133.56 174.988 -133.481 174.549 -133.162 174.327L338.745 -154.544L339.545 -153.387L-132.362 175.484C-132.681 175.706 -133.118 175.627 -133.339 175.308V175.308Z" fill="#20224C"/>
<path d="M-129.341 181.094C-129.562 180.774 -129.482 180.335 -129.163 180.113L342.743 -148.758L343.543 -147.601L-128.364 181.27C-128.682 181.492 -129.12 181.413 -129.341 181.094V181.094Z" fill="#20224C"/>
<path d="M-125.342 186.88C-125.563 186.561 -125.483 186.121 -125.165 185.899L346.742 -142.972L347.542 -141.814L-124.365 187.057C-124.684 187.279 -125.121 187.2 -125.342 186.88V186.88Z" fill="#20224C"/>
<path d="M-121.343 192.666C-121.564 192.347 -121.485 191.908 -121.166 191.686L350.741 -137.185L351.541 -136.028L-120.366 192.843C-120.685 193.065 -121.122 192.986 -121.343 192.666V192.666Z" fill="#20224C"/>
<path d="M-117.345 198.453C-117.565 198.133 -117.486 197.694 -117.167 197.472L354.74 -131.399L355.539 -130.242L-116.368 198.629C-116.686 198.851 -117.124 198.772 -117.345 198.453V198.453Z" fill="#20224C"/>
<path d="M-113.346 204.239C-113.567 203.919 -113.487 203.48 -113.169 203.258L358.738 -125.613L359.538 -124.455L-112.369 204.415C-112.688 204.638 -113.125 204.559 -113.346 204.239V204.239Z" fill="#20224C"/>
<path d="M-109.347 210.025C-109.568 209.706 -109.489 209.267 -109.17 209.045L362.737 -119.826L363.537 -118.669L-108.37 210.202C-108.689 210.424 -109.126 210.345 -109.347 210.025V210.025Z" fill="#20224C"/>
<path d="M-105.349 215.812C-105.569 215.492 -105.49 215.053 -105.171 214.831L366.736 -114.04L367.535 -112.883L-104.372 215.988C-104.69 216.21 -105.128 216.131 -105.349 215.812V215.812Z" fill="#20224C"/>
<path d="M-101.35 221.598C-101.571 221.278 -101.492 220.839 -101.173 220.617L370.734 -108.254L371.534 -107.097L-100.373 221.774C-100.692 221.996 -101.129 221.917 -101.35 221.598V221.598Z" fill="#20224C"/>
<path d="M-97.3512 227.384C-97.5721 227.064 -97.4927 226.625 -97.1741 226.403L374.733 -102.468L375.533 -101.31L-96.3743 227.561C-96.693 227.783 -97.1304 227.704 -97.3512 227.384V227.384Z" fill="#20224C"/>
<path d="M-93.3526 233.17C-93.5735 232.851 -93.4941 232.412 -93.1755 232.19L378.731 -96.6813L379.531 -95.524L-92.3757 233.347C-92.6944 233.569 -93.1318 233.49 -93.3526 233.17V233.17Z" fill="#20224C"/>
<path d="M-89.3539 238.957C-89.5747 238.637 -89.4954 238.198 -89.1767 237.976L382.73 -90.8951L383.53 -89.7379L-88.3769 239.133C-88.6956 239.355 -89.133 239.276 -89.3539 238.957V238.957Z" fill="#20224C"/>
<path d="M-85.3553 244.743C-85.5762 244.423 -85.4968 243.984 -85.1781 243.762L386.729 -85.1088L387.529 -83.9515L-84.3784 244.919C-84.6971 245.142 -85.1345 245.063 -85.3553 244.743V244.743Z" fill="#20224C"/>
<path d="M-81.3566 250.529C-81.5774 250.21 -81.4981 249.771 -81.1794 249.549L390.728 -79.3224L391.527 -78.1651L-80.3797 250.706C-80.6984 250.928 -81.1358 250.849 -81.3566 250.529V250.529Z" fill="#20224C"/>
<path d="M-77.3579 256.316C-77.5787 255.996 -77.4994 255.557 -77.1807 255.335L394.726 -73.536L395.526 -72.3788L-76.3809 256.492C-76.6996 256.714 -77.137 256.635 -77.3579 256.316V256.316Z" fill="#20224C"/>
<path d="M-73.3592 262.102C-73.5801 261.782 -73.5007 261.343 -73.182 261.121L398.725 -67.7499L399.525 -66.5926L-72.3823 262.278C-72.701 262.5 -73.1384 262.421 -73.3592 262.102V262.102Z" fill="#20224C"/>
<path d="M-69.3605 267.888C-69.5813 267.569 -69.502 267.13 -69.1833 266.907L402.724 -61.9635L403.523 -60.8062L-68.3836 268.065C-68.7023 268.287 -69.1397 268.208 -69.3605 267.888V267.888Z" fill="#20224C"/>
<path d="M-65.362 273.674C-65.5828 273.355 -65.5035 272.916 -65.1848 272.694L406.722 -56.1774L407.522 -55.0201L-64.385 273.851C-64.7037 274.073 -65.1411 273.994 -65.362 273.674V273.674Z" fill="#20224C"/>
<path d="M-61.3632 279.461C-61.584 279.141 -61.5047 278.702 -61.186 278.48L410.721 -50.391L411.521 -49.2337L-60.3863 279.637C-60.705 279.859 -61.1424 279.78 -61.3632 279.461V279.461Z" fill="#20224C"/>
<path d="M-57.3646 285.247C-57.5854 284.927 -57.5061 284.488 -57.1874 284.266L414.72 -44.6049L415.519 -43.4476L-56.3877 285.423C-56.7064 285.645 -57.1438 285.566 -57.3646 285.247V285.247Z" fill="#20224C"/>
<path d="M-53.3659 291.033C-53.5867 290.714 -53.5074 290.275 -53.1887 290.052L418.718 -38.8185L419.518 -37.6612L-52.3889 291.21C-52.7076 291.432 -53.145 291.353 -53.3659 291.033V291.033Z" fill="#20224C"/>
<path d="M-49.3672 296.82C-49.5881 296.5 -49.5087 296.061 -49.19 295.839L422.717 -33.0321L423.517 -31.8748L-48.3903 296.996C-48.709 297.218 -49.1464 297.139 -49.3672 296.82V296.82Z" fill="#20224C"/>
<path d="M-45.3686 302.606C-45.5894 302.286 -45.5101 301.847 -45.1914 301.625L426.716 -27.2457L427.515 -26.0885L-44.3916 302.782C-44.7103 303.005 -45.1477 302.926 -45.3686 302.606V302.606Z" fill="#20224C"/>
<path d="M-41.3699 308.392C-41.5907 308.073 -41.5114 307.633 -41.1927 307.411L430.714 -21.4596L431.514 -20.3023L-40.393 308.569C-40.7117 308.791 -41.1491 308.712 -41.3699 308.392V308.392Z" fill="#20224C"/>
<path d="M-37.3713 314.178C-37.5921 313.859 -37.5128 313.42 -37.1941 313.198L434.713 -15.6732L435.513 -14.516L-36.3943 314.355C-36.713 314.577 -37.1504 314.498 -37.3713 314.178V314.178Z" fill="#20224C"/>
<path d="M-33.3725 319.965C-33.5934 319.645 -33.514 319.206 -33.1954 318.984L438.712 -9.88684L439.511 -8.72958L-32.3956 320.141C-32.7143 320.363 -33.1517 320.284 -33.3725 319.965V319.965Z" fill="#20224C"/>
<path d="M-29.3739 325.751C-29.5947 325.431 -29.5154 324.992 -29.1967 324.77L442.71 -4.10071L443.51 -2.94345L-28.3969 325.927C-28.7156 326.15 -29.153 326.071 -29.3739 325.751V325.751Z" fill="#20224C"/>
<path d="M-25.3752 331.537C-25.5961 331.218 -25.5167 330.778 -25.198 330.556L446.709 1.68543L447.509 2.84268L-24.3983 331.714C-24.717 331.936 -25.1544 331.857 -25.3752 331.537V331.537Z" fill="#20224C"/>
<path d="M-21.3766 337.324C-21.5974 337.004 -21.5181 336.565 -21.1994 336.343L450.708 7.4718L451.507 8.62906L-20.3996 337.5C-20.7183 337.722 -21.1557 337.643 -21.3766 337.324V337.324Z" fill="#20224C"/>
<path d="M-17.3778 343.11C-17.5987 342.79 -17.5194 342.351 -17.2007 342.129L454.706 13.2582L455.506 14.4154L-16.4009 343.286C-16.7196 343.508 -17.157 343.429 -17.3778 343.11V343.11Z" fill="#20224C"/>
<path d="M-13.3792 348.896C-13.6 348.577 -13.5207 348.138 -13.202 347.915L458.705 19.0446L459.505 20.2018L-12.4022 349.073C-12.7209 349.295 -13.1583 349.216 -13.3792 348.896V348.896Z" fill="#20224C"/>
<path d="M-9.38053 354.682C-9.60137 354.363 -9.52204 353.924 -9.20335 353.702L462.704 24.8307L463.503 25.9879L-8.40359 354.859C-8.72228 355.081 -9.15969 355.002 -9.38053 354.682V354.682Z" fill="#20224C"/>
<path d="M-5.38181 360.469C-5.60265 360.149 -5.52332 359.71 -5.20463 359.488L466.702 30.6171L467.502 31.7743L-4.40487 360.645C-4.72357 360.867 -5.16097 360.788 -5.38181 360.469V360.469Z" fill="#20224C"/>
<path d="M-1.38321 366.255C-1.60405 365.936 -1.52473 365.496 -1.20603 365.274L470.701 36.4034L471.501 37.5607L-0.406274 366.432C-0.72497 366.654 -1.16237 366.575 -1.38321 366.255V366.255Z" fill="#20224C"/>
<path d="M2.6155 372.041C2.39466 371.722 2.47399 371.283 2.79269 371.061L474.7 42.1896L475.499 43.3468L3.59244 372.218C3.27375 372.44 2.83634 372.361 2.6155 372.041V372.041Z" fill="#20224C"/>
<path d="M6.61416 377.827C6.39332 377.508 6.47265 377.069 6.79134 376.847L478.698 47.9757L479.498 49.133L7.5911 378.004C7.27241 378.226 6.835 378.147 6.61416 377.827V377.827Z" fill="#20224C"/>
<path d="M10.6129 383.614C10.392 383.294 10.4714 382.855 10.7901 382.633L482.697 53.7621L483.497 54.9193L11.5898 383.79C11.2711 384.012 10.8337 383.933 10.6129 383.614V383.614Z" fill="#20224C"/>
<path d="M14.6115 389.4C14.3906 389.081 14.47 388.641 14.7887 388.419L486.696 59.5485L487.495 60.7057L15.5884 389.577C15.2697 389.799 14.8323 389.72 14.6115 389.4V389.4Z" fill="#20224C"/>
<path d="M18.6101 395.187C18.3893 394.867 18.4686 394.428 18.7873 394.206L490.694 65.3348L491.494 66.4921L19.5871 395.363C19.2684 395.585 18.831 395.506 18.6101 395.187V395.187Z" fill="#20224C"/>
<path d="M22.6089 400.973C22.388 400.653 22.4673 400.214 22.786 399.992L494.693 71.121L495.493 72.2782L23.5858 401.149C23.2671 401.371 22.8297 401.292 22.6089 400.973V400.973Z" fill="#20224C"/>
<path d="M26.6075 406.759C26.3867 406.439 26.466 406 26.7847 405.778L498.692 76.9073L499.491 78.0646L27.5844 406.936C27.2658 407.158 26.8283 407.079 26.6075 406.759V406.759Z" fill="#20224C"/>
<path d="M30.6062 412.545C30.3853 412.226 30.4647 411.787 30.7833 411.565L502.69 82.6937L503.49 83.851L31.5831 412.722C31.2644 412.944 30.827 412.865 30.6062 412.545V412.545Z" fill="#20224C"/>
<path d="M34.6048 418.332C34.384 418.012 34.4633 417.573 34.782 417.351L506.689 88.4799L507.489 89.6371L35.5818 418.508C35.2631 418.73 34.8257 418.651 34.6048 418.332V418.332Z" fill="#20224C"/>
<path d="M38.6035 424.118C38.3826 423.798 38.462 423.359 38.7807 423.137L510.688 94.266L511.487 95.4232L39.5804 424.294C39.2617 424.516 38.8243 424.437 38.6035 424.118V424.118Z" fill="#20224C"/>
<path d="M42.6022 429.904C42.3814 429.585 42.4607 429.145 42.7794 428.923L514.686 100.052L515.486 101.21L43.5791 430.081C43.2604 430.303 42.823 430.224 42.6022 429.904V429.904Z" fill="#20224C"/>
<path d="M46.6009 435.69C46.38 435.371 46.4593 434.932 46.778 434.71L518.685 105.839L519.485 106.996L47.5778 435.867C47.2591 436.089 46.8217 436.01 46.6009 435.69V435.69Z" fill="#20224C"/>
<path d="M50.5996 441.477C50.3787 441.157 50.4581 440.718 50.7768 440.496L522.684 111.625L523.483 112.782L51.5765 441.653C51.2578 441.875 50.8204 441.796 50.5996 441.477V441.477Z" fill="#20224C"/>
<path d="M54.5982 447.263C54.3773 446.943 54.4567 446.504 54.7754 446.282L526.682 117.411L527.482 118.569L55.5751 447.439C55.2564 447.662 54.819 447.583 54.5982 447.263V447.263Z" fill="#20224C"/>
<path d="M58.5968 453.049C58.376 452.73 58.4553 452.291 58.774 452.069L530.681 123.198L531.481 124.355L59.5738 453.226C59.2551 453.448 58.8177 453.369 58.5968 453.049V453.049Z" fill="#20224C"/>
<path d="M62.5955 458.836C62.3747 458.516 62.454 458.077 62.7727 457.855L534.68 128.984L535.479 130.141L63.5725 459.012C63.2538 459.234 62.8164 459.155 62.5955 458.836V458.836Z" fill="#20224C"/>
<path d="M66.5942 464.622C66.3734 464.302 66.4527 463.863 66.7714 463.641L538.678 134.77L539.478 135.927L67.5711 464.798C67.2524 465.02 66.815 464.941 66.5942 464.622V464.622Z" fill="#20224C"/>
<path d="M70.5929 470.408C70.3721 470.089 70.4514 469.65 70.7701 469.427L542.677 140.557L543.477 141.714L71.5699 470.585C71.2512 470.807 70.8138 470.728 70.5929 470.408V470.408Z" fill="#20224C"/>
<path d="M74.5915 476.194C74.3707 475.875 74.45 475.436 74.7687 475.214L546.676 146.343L547.475 147.5L75.5685 476.371C75.2498 476.593 74.8124 476.514 74.5915 476.194V476.194Z" fill="#20224C"/>
<path d="M78.5902 481.981C78.3694 481.661 78.4487 481.222 78.7674 481L550.674 152.129L551.474 153.286L79.5672 482.157C79.2485 482.379 78.8111 482.3 78.5902 481.981V481.981Z" fill="#20224C"/>
<path d="M82.5889 487.767C82.368 487.448 82.4473 487.008 82.766 486.786L554.673 157.915L555.473 159.073L83.5658 487.944C83.2471 488.166 82.8097 488.087 82.5889 487.767V487.767Z" fill="#20224C"/>
<path d="M86.5876 493.553C86.3668 493.234 86.4461 492.795 86.7648 492.572L558.672 163.702L559.471 164.859L87.5646 493.73C87.2459 493.952 86.8085 493.873 86.5876 493.553V493.553Z" fill="#20224C"/>
<path d="M90.5862 499.34C90.3654 499.02 90.4447 498.581 90.7634 498.359L562.67 169.488L563.47 170.645L91.5632 499.516C91.2445 499.738 90.8071 499.659 90.5862 499.34V499.34Z" fill="#20224C"/>
</g>
</svg>
