<svg width="37" height="47" viewBox="0 0 37 47" fill="none" xmlns="http://www.w3.org/2000/svg">
<path fill-rule="evenodd" clip-rule="evenodd" d="M19.8158 46.0013C19.026 46.5552 17.9727 46.5543 17.183 46.0005L17.1772 45.9964L17.1644 45.9874L17.1217 45.957C17.0857 45.9313 17.0349 45.8948 16.9703 45.8477C16.8411 45.7536 16.6565 45.6172 16.4243 45.4408C15.9602 45.0882 15.3048 44.5748 14.5219 43.9189C12.9593 42.61 10.8712 40.7193 8.77624 38.393C4.66673 33.8298 0.166626 27.1908 0.166626 19.75C0.166626 14.7031 2.07142 9.84101 5.49584 6.23869C8.92402 2.63243 13.5991 0.583374 18.5 0.583374C23.4008 0.583374 28.0759 2.63243 31.5041 6.23869C34.9285 9.84101 36.8333 14.7031 36.8333 19.75C36.8333 27.1908 32.3332 33.8298 28.2237 38.393C26.1287 40.7193 24.0406 42.61 22.478 43.9189C21.6951 44.5748 21.0397 45.0882 20.5756 45.4408C20.3434 45.6172 20.1588 45.7536 20.0296 45.8477C19.965 45.8948 19.9142 45.9313 19.8782 45.957L19.8355 45.9874L19.8227 45.9964L19.8185 45.9994L19.8158 46.0013ZM11.625 18.9167C11.625 15.1197 14.703 12.0417 18.5 12.0417C22.2969 12.0417 25.375 15.1197 25.375 18.9167C25.375 22.7137 22.2969 25.7917 18.5 25.7917C14.703 25.7917 11.625 22.7137 11.625 18.9167Z" fill="white"/>
</svg>
