<svg width="54" height="54" viewBox="0 0 54 54" fill="none" xmlns="http://www.w3.org/2000/svg">
<path fill-rule="evenodd" clip-rule="evenodd" d="M27 4.5C20.7868 4.5 15.75 9.5368 15.75 15.75C15.75 21.9632 20.7868 27 27 27C33.2132 27 38.25 21.9632 38.25 15.75C38.25 9.5368 33.2132 4.5 27 4.5Z" fill="white"/>
<path fill-rule="evenodd" clip-rule="evenodd" d="M20.25 29.25C16.5088 29.25 12.911 30.9567 10.8026 33.526C9.7325 34.83 8.98023 36.4435 8.91473 38.2319C8.84783 40.0581 9.50706 41.8406 10.8666 43.3959C14.1798 47.1862 19.4699 49.5 27 49.5C34.5301 49.5 39.8202 47.1862 43.1334 43.3959C44.493 41.8406 45.1522 40.0581 45.0853 38.2319C45.0198 36.4435 44.2675 34.83 43.1974 33.526C41.089 30.9567 37.4912 29.25 33.75 29.25H20.25Z" fill="white"/>
</svg>
