<svg width="34" height="42" viewBox="0 0 34 42" fill="none" xmlns="http://www.w3.org/2000/svg">
<path fill-rule="evenodd" clip-rule="evenodd" d="M8.66663 8.49996C8.66663 3.89759 12.3976 0.166626 17 0.166626C21.6023 0.166626 25.3333 3.89759 25.3333 8.49996V16.8333H21.1666V8.49996C21.1666 6.19877 19.3011 4.33329 17 4.33329C14.6988 4.33329 12.8333 6.19877 12.8333 8.49996V16.8333H8.66663V8.49996Z" fill="white"/>
<path fill-rule="evenodd" clip-rule="evenodd" d="M8.66658 14.75C4.06421 14.75 0.333252 18.481 0.333252 23.0833V33.5C0.333252 38.1024 4.06421 41.8333 8.66658 41.8333H25.3333C29.9356 41.8333 33.6666 38.1024 33.6666 33.5V23.0833C33.6666 18.481 29.9356 14.75 25.3333 14.75H8.66658Z" fill="white"/>
</svg>
