<svg width="501" height="421" viewBox="0 0 501 421" fill="none" xmlns="http://www.w3.org/2000/svg">
<mask id="mask0_88_221" style="mask-type:alpha" maskUnits="userSpaceOnUse" x="0" y="0" width="501" height="421">
<rect x="0.829437" y="0.996582" width="499.885" height="419.731" fill="#1EBED8"/>
</mask>
<g mask="url(#mask0_88_221)">
<rect x="-217.57" y="136.926" width="706.734" height="1.72374" transform="rotate(-34.7596 -217.57 136.926)" fill="#FB01FE"/>
<rect x="-212.656" y="144.006" width="706.734" height="1.72374" transform="rotate(-34.7596 -212.656 144.006)" fill="#FB01FE"/>
<rect x="-207.742" y="151.087" width="706.734" height="1.72374" transform="rotate(-34.7596 -207.742 151.087)" fill="#FB01FE"/>
<rect x="-202.828" y="158.168" width="706.734" height="1.72374" transform="rotate(-34.7596 -202.828 158.168)" fill="#FB01FE"/>
<rect x="-197.914" y="165.248" width="706.734" height="1.72374" transform="rotate(-34.7596 -197.914 165.248)" fill="#FB01FE"/>
<rect x="-193.001" y="172.329" width="706.734" height="1.72374" transform="rotate(-34.7596 -193.001 172.329)" fill="#FB01FE"/>
<rect x="-188.087" y="179.41" width="706.734" height="1.72374" transform="rotate(-34.7596 -188.087 179.41)" fill="#FB01FE"/>
<rect x="-183.173" y="186.49" width="706.734" height="1.72374" transform="rotate(-34.7596 -183.173 186.49)" fill="#FB01FE"/>
<rect x="-178.259" y="193.571" width="706.734" height="1.72374" transform="rotate(-34.7596 -178.259 193.571)" fill="#FB01FE"/>
<rect x="-173.345" y="200.652" width="706.734" height="1.72374" transform="rotate(-34.7596 -173.345 200.652)" fill="#FB01FE"/>
<rect x="-168.432" y="207.732" width="706.734" height="1.72374" transform="rotate(-34.7596 -168.432 207.732)" fill="#FB01FE"/>
<rect x="-163.518" y="214.813" width="706.734" height="1.72374" transform="rotate(-34.7596 -163.518 214.813)" fill="#FB01FE"/>
<rect x="-158.604" y="221.894" width="706.734" height="1.72374" transform="rotate(-34.7596 -158.604 221.894)" fill="#FB01FE"/>
<rect x="-153.69" y="228.975" width="706.734" height="1.72374" transform="rotate(-34.7596 -153.69 228.975)" fill="#FB01FE"/>
<rect x="-148.776" y="236.055" width="706.734" height="1.72374" transform="rotate(-34.7596 -148.776 236.055)" fill="#FB01FE"/>
<rect x="-143.862" y="243.136" width="706.734" height="1.72374" transform="rotate(-34.7596 -143.862 243.136)" fill="#FB01FE"/>
<rect x="-138.949" y="250.217" width="706.734" height="1.72374" transform="rotate(-34.7596 -138.949 250.217)" fill="#FB01FE"/>
<rect x="-134.035" y="257.298" width="706.734" height="1.72374" transform="rotate(-34.7596 -134.035 257.298)" fill="#FB01FE"/>
<rect x="-129.121" y="264.378" width="706.734" height="1.72374" transform="rotate(-34.7596 -129.121 264.378)" fill="#FB01FE"/>
<rect x="-124.207" y="271.459" width="706.734" height="1.72374" transform="rotate(-34.7596 -124.207 271.459)" fill="#FB01FE"/>
<rect x="-119.293" y="278.54" width="706.734" height="1.72374" transform="rotate(-34.7596 -119.293 278.54)" fill="#FB01FE"/>
<rect x="-114.38" y="285.621" width="706.734" height="1.72374" transform="rotate(-34.7596 -114.38 285.621)" fill="#FB01FE"/>
<rect x="-109.466" y="292.701" width="706.734" height="1.72374" transform="rotate(-34.7596 -109.466 292.701)" fill="#FB01FE"/>
<rect x="-104.552" y="299.782" width="706.734" height="1.72374" transform="rotate(-34.7596 -104.552 299.782)" fill="#FB01FE"/>
<rect x="-99.6381" y="306.863" width="706.734" height="1.72374" transform="rotate(-34.7596 -99.6381 306.863)" fill="#FB01FE"/>
<rect x="-94.7243" y="313.943" width="706.734" height="1.72374" transform="rotate(-34.7596 -94.7243 313.943)" fill="#FB01FE"/>
<rect x="-89.8104" y="321.024" width="706.734" height="1.72374" transform="rotate(-34.7596 -89.8104 321.024)" fill="#FB01FE"/>
<rect x="-84.8966" y="328.105" width="706.734" height="1.72374" transform="rotate(-34.7596 -84.8966 328.105)" fill="#FB01FE"/>
<rect x="-79.9828" y="335.185" width="706.734" height="1.72374" transform="rotate(-34.7596 -79.9828 335.185)" fill="#FB01FE"/>
<rect x="-75.069" y="342.266" width="706.734" height="1.72374" transform="rotate(-34.7596 -75.069 342.266)" fill="#FB01FE"/>
<rect x="-70.1552" y="349.347" width="706.734" height="1.72374" transform="rotate(-34.7596 -70.1552 349.347)" fill="#FB01FE"/>
<rect x="-65.2413" y="356.427" width="706.734" height="1.72374" transform="rotate(-34.7596 -65.2413 356.427)" fill="#FB01FE"/>
<rect x="-60.3275" y="363.508" width="706.734" height="1.72374" transform="rotate(-34.7596 -60.3275 363.508)" fill="#FB01FE"/>
<rect x="-55.4137" y="370.589" width="706.734" height="1.72374" transform="rotate(-34.7596 -55.4137 370.589)" fill="#FB01FE"/>
<rect x="-50.4999" y="377.67" width="706.734" height="1.72374" transform="rotate(-34.7596 -50.4999 377.67)" fill="#FB01FE"/>
<rect x="-45.5861" y="384.75" width="706.734" height="1.72374" transform="rotate(-34.7596 -45.5861 384.75)" fill="#FB01FE"/>
<rect x="-40.6722" y="391.831" width="706.734" height="1.72374" transform="rotate(-34.7596 -40.6722 391.831)" fill="#FB01FE"/>
<rect x="-35.7584" y="398.912" width="706.734" height="1.72374" transform="rotate(-34.7596 -35.7584 398.912)" fill="#FB01FE"/>
<rect x="-30.8446" y="405.992" width="706.734" height="1.72374" transform="rotate(-34.7596 -30.8446 405.992)" fill="#FB01FE"/>
<rect x="-25.9308" y="413.073" width="706.734" height="1.72374" transform="rotate(-34.7596 -25.9308 413.073)" fill="#FB01FE"/>
<rect x="-21.017" y="420.154" width="706.734" height="1.72374" transform="rotate(-34.7596 -21.017 420.154)" fill="#FB01FE"/>
<rect x="-16.1031" y="427.235" width="706.734" height="1.72374" transform="rotate(-34.7596 -16.1031 427.235)" fill="#FB01FE"/>
<rect x="-11.1893" y="434.315" width="706.734" height="1.72374" transform="rotate(-34.7596 -11.1893 434.315)" fill="#FB01FE"/>
<rect x="-6.2755" y="441.396" width="706.734" height="1.72374" transform="rotate(-34.7596 -6.2755 441.396)" fill="#FB01FE"/>
<rect x="-1.36169" y="448.477" width="706.734" height="1.72374" transform="rotate(-34.7596 -1.36169 448.477)" fill="#FB01FE"/>
<rect x="3.55213" y="455.558" width="706.734" height="1.72374" transform="rotate(-34.7596 3.55213 455.558)" fill="#FB01FE"/>
<rect x="8.46596" y="462.638" width="706.734" height="1.72374" transform="rotate(-34.7596 8.46596 462.638)" fill="#FB01FE"/>
<rect x="13.3798" y="469.719" width="706.734" height="1.72374" transform="rotate(-34.7596 13.3798 469.719)" fill="#FB01FE"/>
<rect x="18.2936" y="476.8" width="706.734" height="1.72374" transform="rotate(-34.7596 18.2936 476.8)" fill="#FB01FE"/>
<rect x="23.2074" y="483.88" width="706.734" height="1.72374" transform="rotate(-34.7596 23.2074 483.88)" fill="#FB01FE"/>
<rect x="28.1212" y="490.961" width="706.734" height="1.72374" transform="rotate(-34.7596 28.1212 490.961)" fill="#FB01FE"/>
<rect x="33.0351" y="498.042" width="706.734" height="1.72374" transform="rotate(-34.7596 33.0351 498.042)" fill="#FB01FE"/>
<rect x="37.9489" y="505.123" width="706.734" height="1.72374" transform="rotate(-34.7596 37.9489 505.123)" fill="#FB01FE"/>
<rect x="42.8627" y="512.203" width="706.734" height="1.72374" transform="rotate(-34.7596 42.8627 512.203)" fill="#FB01FE"/>
<rect x="47.7765" y="519.284" width="706.734" height="1.72374" transform="rotate(-34.7596 47.7765 519.284)" fill="#FB01FE"/>
<rect x="52.6903" y="526.365" width="706.734" height="1.72374" transform="rotate(-34.7596 52.6903 526.365)" fill="#FB01FE"/>
<rect x="57.6041" y="533.445" width="706.734" height="1.72374" transform="rotate(-34.7596 57.6041 533.445)" fill="#FB01FE"/>
<rect x="62.518" y="540.526" width="706.734" height="1.72374" transform="rotate(-34.7596 62.518 540.526)" fill="#FB01FE"/>
<rect x="67.4318" y="547.607" width="706.734" height="1.72374" transform="rotate(-34.7596 67.4318 547.607)" fill="#FB01FE"/>
<rect x="72.3456" y="554.688" width="706.734" height="1.72374" transform="rotate(-34.7596 72.3456 554.688)" fill="#FB01FE"/>
<rect x="77.2594" y="561.768" width="706.734" height="1.72374" transform="rotate(-34.7596 77.2594 561.768)" fill="#FB01FE"/>
<rect x="82.1732" y="568.849" width="706.734" height="1.72374" transform="rotate(-34.7596 82.1732 568.849)" fill="#FB01FE"/>
<rect x="87.0871" y="575.929" width="706.734" height="1.72374" transform="rotate(-34.7596 87.0871 575.929)" fill="#FB01FE"/>
<rect x="92.0009" y="583.01" width="706.734" height="1.72374" transform="rotate(-34.7596 92.0009 583.01)" fill="#FB01FE"/>
<rect x="96.9147" y="590.091" width="706.734" height="1.72374" transform="rotate(-34.7596 96.9147 590.091)" fill="#FB01FE"/>
<rect x="101.829" y="597.172" width="706.734" height="1.72374" transform="rotate(-34.7596 101.829 597.172)" fill="#FB01FE"/>
<rect x="106.742" y="604.252" width="706.734" height="1.72374" transform="rotate(-34.7596 106.742 604.252)" fill="#FB01FE"/>
<rect x="111.656" y="611.333" width="706.734" height="1.72374" transform="rotate(-34.7596 111.656 611.333)" fill="#FB01FE"/>
</g>
</svg>
