<svg width="565" height="582" viewBox="0 0 565 582" fill="none" xmlns="http://www.w3.org/2000/svg">
<g filter="url(#filter0_f_80_35)">
<path d="M273.141 247.623L183.206 312.606L179.461 402.504L313.09 330.991L368.41 264.31L273.141 247.623Z" fill="url(#paint0_linear_80_35)" fill-opacity="0.2"/>
</g>
<g filter="url(#filter1_d_80_35)">
<path d="M269.64 250.153L187.229 309.699C184.689 311.534 183.13 314.433 183 317.565L180.207 384.607C179.877 392.518 188.273 397.788 195.254 394.052L311.323 331.937C312.49 331.313 313.524 330.468 314.369 329.449L357.155 277.877C362.17 271.832 358.784 262.624 351.047 261.269L277.396 248.369C274.676 247.892 271.879 248.536 269.64 250.153Z" fill="url(#paint1_radial_80_35)"/>
</g>
<g filter="url(#filter2_bf_80_35)">
<ellipse cx="326.873" cy="219.292" rx="139.247" ry="102.528" transform="rotate(-150.78 326.873 219.292)" fill="#1D1A25" fill-opacity="0.25"/>
</g>
<defs>
<filter id="filter0_f_80_35" x="0.444885" y="68.6069" width="546.981" height="512.913" filterUnits="userSpaceOnUse" color-interpolation-filters="sRGB">
<feFlood flood-opacity="0" result="BackgroundImageFix"/>
<feBlend mode="normal" in="SourceGraphic" in2="BackgroundImageFix" result="shape"/>
<feGaussianBlur stdDeviation="89.5082" result="effect1_foregroundBlur_80_35"/>
</filter>
<filter id="filter1_d_80_35" x="69.3778" y="144.215" width="400.963" height="368.703" filterUnits="userSpaceOnUse" color-interpolation-filters="sRGB">
<feFlood flood-opacity="0" result="BackgroundImageFix"/>
<feColorMatrix in="SourceAlpha" type="matrix" values="0 0 0 0 0 0 0 0 0 0 0 0 0 0 0 0 0 0 127 0" result="hardAlpha"/>
<feOffset dy="6.81967"/>
<feGaussianBlur stdDeviation="55.4098"/>
<feComposite in2="hardAlpha" operator="out"/>
<feColorMatrix type="matrix" values="0 0 0 0 0.780392 0 0 0 0 0.815686 0 0 0 0 0.423529 0 0 0 0.32 0"/>
<feBlend mode="color-dodge" in2="BackgroundImageFix" result="effect1_dropShadow_80_35"/>
<feBlend mode="normal" in="SourceGraphic" in2="effect1_dropShadow_80_35" result="shape"/>
</filter>
<filter id="filter2_bf_80_35" x="88.8113" y="0.317886" width="476.123" height="437.948" filterUnits="userSpaceOnUse" color-interpolation-filters="sRGB">
<feFlood flood-opacity="0" result="BackgroundImageFix"/>
<feGaussianBlur in="BackgroundImageFix" stdDeviation="18.1993"/>
<feComposite in2="SourceAlpha" operator="in" result="effect1_backgroundBlur_80_35"/>
<feBlend mode="normal" in="SourceGraphic" in2="effect1_backgroundBlur_80_35" result="shape"/>
<feGaussianBlur stdDeviation="53.2978" result="effect2_foregroundBlur_80_35"/>
</filter>
<linearGradient id="paint0_linear_80_35" x1="177.264" y1="387.799" x2="358.286" y2="339.809" gradientUnits="userSpaceOnUse">
<stop stop-color="#11ADE9"/>
<stop offset="0.5" stop-color="#7A72EE"/>
<stop offset="1" stop-color="#F209FE"/>
</linearGradient>
<radialGradient id="paint1_radial_80_35" cx="0" cy="0" r="1" gradientUnits="userSpaceOnUse" gradientTransform="translate(180 299.77) rotate(1.30451) scale(187.093 278.358)">
<stop stop-color="#1DCBEC"/>
<stop offset="0.461479" stop-color="#7A72EE"/>
<stop offset="1" stop-color="#0D0E25"/>
</radialGradient>
</defs>
</svg>
